<svg width="839" height="604" viewBox="0 0 839 604" fill="none" xmlns="http://www.w3.org/2000/svg">
<g filter="url(#filter0_i_109_45)">
<path d="M489.582 383.253C491.694 399.526 488.102 416.029 479.417 429.952C470.733 443.875 457.492 454.358 441.948 459.619C426.405 464.879 409.519 464.591 394.164 458.804C378.808 453.016 365.933 442.087 357.728 427.876C349.524 413.665 346.496 397.05 349.162 380.858C351.828 364.667 360.021 349.899 372.349 339.068C384.676 328.237 400.376 322.012 416.776 321.453C433.176 320.893 449.263 326.034 462.3 335.999C462.3 335.999 492.35 335.644 507.478 335.644C499.74 343.642 494.261 353.55 491.599 364.356C489.687 372.292 489.582 383.253 489.582 383.253Z" fill="url(#paint0_linear_109_45)"/>
<path d="M798.219 157.761C784.232 193.414 758.011 225.962 723.241 251.234C723.088 251.345 722.922 251.438 722.747 251.511C683.933 268.293 643.236 280.329 601.537 287.355L598.057 288.014L597.398 286.037C593.729 275.469 589.125 265.249 583.641 255.498C572.467 235.598 557.805 217.868 540.356 203.156C538.82 201.902 537.688 200.224 537.099 198.331C537.099 198.331 537.099 198.331 537.099 198.298C536.338 195.736 536.089 193.05 536.367 190.392C536.646 187.734 537.445 185.157 538.721 182.808C541.272 178.186 545.438 174.666 550.421 172.921L554.105 171.603C649.369 136.347 734.196 77.6213 800.73 0.865383C801.017 0.52936 801.39 0.277027 801.808 0.134954C802.227 -0.00711935 802.676 -0.0336746 803.109 0.0580841C803.541 0.149843 803.941 0.35652 804.266 0.656352C804.591 0.956185 804.829 1.33808 804.955 1.76182V1.80136L805.614 4.03586C805.99 5.28163 825.758 87.6744 798.219 157.761Z" fill="#FF6F60"/>
<path d="M123.752 398.038C126.283 399.29 128.818 400.474 131.358 401.591C158.311 407.255 185.781 410.103 213.323 410.087H216.961C218.464 410.087 219.964 410.065 221.463 410.021L223.651 409.968L225.945 409.909C226.993 409.876 228.035 409.843 229.076 409.797H229.116C231.198 409.711 233.268 409.612 235.344 409.5C236.379 409.448 237.427 409.382 238.462 409.316L240.38 409.026C240.071 408.103 239.774 407.187 239.471 406.264C227.552 368.812 227.495 328.592 239.306 291.105C239.635 290.064 239.974 289.027 240.321 287.994C240.321 287.994 237.579 287.487 237.579 287.473L236.841 287.342C195.048 280.296 154.261 268.223 115.367 251.385C93.0551 241.723 71.4423 230.519 50.6859 217.855C36.031 208.917 21.8924 199.311 8.27011 189.037C5.88402 187.251 3.5177 185.425 1.16456 183.593C1.09206 184.192 0.986594 185.049 0.881132 186.091C-7.76022 267.58 48.1811 360.73 123.752 398.038Z" fill="#FF7E70"/>
<path d="M714.666 398.038C712.144 399.29 709.61 400.475 707.066 401.591C680.113 407.255 652.644 410.103 625.102 410.087C623.882 410.087 622.676 410.087 621.463 410.087C619.96 410.087 618.46 410.065 616.961 410.021L614.773 409.968L612.479 409.909C611.431 409.876 610.39 409.843 609.348 409.797H609.309C607.226 409.709 605.15 409.61 603.08 409.5C602.038 409.448 600.997 409.382 599.962 409.316L598.044 409.026C598.354 408.103 598.65 407.187 598.947 406.264C610.871 368.813 610.93 328.592 599.118 291.105C598.789 290.064 598.45 289.027 598.103 287.994L601.584 287.335C643.376 280.29 684.163 268.217 723.057 251.379C745.376 241.713 766.996 230.505 787.758 217.835C802.404 208.897 816.543 199.291 830.174 189.017C832.56 187.231 834.926 185.405 837.28 183.573C837.352 184.173 837.457 185.03 837.563 186.071C846.185 267.581 790.243 360.73 714.666 398.038Z" fill="#FF7E70"/>
<path d="M301.338 198.265C301.338 198.265 301.338 198.265 301.338 198.298C300.747 200.19 299.615 201.867 298.082 203.123C271.967 225.125 252.261 253.755 241.033 286.004L240.374 287.981L236.894 287.322C195.195 280.296 154.497 268.261 115.684 251.478C115.508 251.406 115.342 251.313 115.19 251.201C80.4133 225.962 54.1663 193.414 40.2056 157.761C12.6667 87.6744 32.4343 5.28163 32.7969 4.03585L33.456 1.80136C33.4589 1.78833 33.4589 1.77484 33.456 1.76181C33.5826 1.33672 33.8215 0.953644 34.1475 0.652964C34.4735 0.352284 34.8747 0.145137 35.3086 0.0533578C35.7425 -0.0384214 36.1932 -0.0114328 36.6131 0.131479C37.0329 0.274391 37.4065 0.527931 37.6943 0.865376C104.236 77.5956 189.062 136.296 284.319 171.53L288.003 172.849C292.986 174.592 297.149 178.113 299.697 182.736C300.982 185.088 301.789 187.671 302.071 190.336C302.353 193.002 302.104 195.697 301.338 198.265Z" fill="#FF6F60"/>
<path d="M786.624 375.719C784.106 376.84 781.582 377.947 779.037 379.015C755.825 388.822 731.724 396.376 707.066 401.571C680.113 407.236 652.643 410.083 625.101 410.067C623.882 410.067 622.676 410.067 621.463 410.067C619.96 410.067 618.459 410.045 616.961 410.001L614.773 409.949L612.479 409.889C611.431 409.856 610.389 409.823 609.348 409.777H609.308C607.226 409.689 605.149 409.59 603.079 409.481C602.038 409.428 600.997 409.362 599.962 409.296L598.044 409.006C597.694 410.047 597.332 411.082 596.969 412.124C593.997 420.439 590.451 428.537 586.357 436.36C578.043 452.262 567.522 466.908 555.107 479.864C539.013 496.662 519.98 510.372 498.948 520.315C513.177 521.511 527.588 522.117 542.181 522.135C581.771 522.173 621.23 517.594 659.759 508.49C668.467 504.488 676.94 499.992 685.136 495.024C699.466 486.306 713.148 476.565 726.075 465.877C755.327 440.028 778.554 408.078 794.119 372.279C791.871 373.34 789.366 374.5 786.624 375.719Z" fill="#FF8F83"/>
<path d="M659.74 508.51C626.183 551.447 578.982 585.003 523.844 603.993C493.267 587.376 457.442 577.812 419.212 577.812C380.982 577.812 345.164 587.376 314.58 604C259.429 585.003 212.241 551.447 178.685 508.51C217.211 517.613 256.668 522.192 296.256 522.154C337.697 522.198 378.989 517.176 419.212 507.198C459.435 517.174 500.727 522.197 542.168 522.154C581.756 522.192 621.213 517.613 659.74 508.51Z" fill="#FF9C92"/>
<path d="M178.685 508.51C217.211 517.613 256.668 522.192 296.256 522.154C310.84 522.154 325.254 521.548 339.495 520.335C318.461 510.388 299.427 496.671 283.337 479.864C270.921 466.908 260.4 452.262 252.087 436.36C248 428.543 244.461 420.451 241.494 412.143C241.132 411.102 240.769 410.067 240.42 409.026L238.502 409.316C237.467 409.382 236.419 409.448 235.384 409.5C233.308 409.612 231.238 409.711 229.155 409.797H229.116C228.074 409.843 227.033 409.876 225.985 409.909L223.691 409.968L221.47 409.995C219.975 410.025 218.475 410.047 216.968 410.061H213.329C185.788 410.085 158.319 407.247 131.365 401.591C106.704 396.389 82.6005 388.829 59.3866 379.015C56.8423 377.941 54.3178 376.833 51.7999 375.719C49.0578 374.487 46.5267 373.327 44.3054 372.265C59.8703 408.064 83.0969 440.014 112.349 465.864C125.275 476.556 138.957 486.302 153.288 495.024C161.49 500.003 169.969 504.51 178.685 508.523V508.51Z" fill="#FF8F83"/>
</g>
<defs>
<filter id="filter0_i_109_45" x="0" y="0" width="838.44" height="610" filterUnits="userSpaceOnUse" color-interpolation-filters="sRGB">
<feFlood flood-opacity="0" result="BackgroundImageFix"/>
<feBlend mode="normal" in="SourceGraphic" in2="BackgroundImageFix" result="shape"/>
<feColorMatrix in="SourceAlpha" type="matrix" values="0 0 0 0 0 0 0 0 0 0 0 0 0 0 0 0 0 0 127 0" result="hardAlpha"/>
<feOffset dy="6"/>
<feGaussianBlur stdDeviation="4.5"/>
<feComposite in2="hardAlpha" operator="arithmetic" k2="-1" k3="1"/>
<feColorMatrix type="matrix" values="0 0 0 0 0.0784314 0 0 0 0 0.0941176 0 0 0 0 0.121569 0 0 0 0.25 0"/>
<feBlend mode="normal" in2="shape" result="effect1_innerShadow_109_45"/>
</filter>
<linearGradient id="paint0_linear_109_45" x1="427.866" y1="463.313" x2="427.866" y2="321.413" gradientUnits="userSpaceOnUse">
<stop stop-color="#FF9C92"/>
<stop offset="1" stop-color="#FE6F60"/>
</linearGradient>
</defs>
</svg>
