<?xml version="1.0" standalone="no"?>
<!DOCTYPE svg PUBLIC "-//W3C//DTD SVG 20010904//EN"
 "http://www.w3.org/TR/2001/REC-SVG-20010904/DTD/svg10.dtd">
<svg version="1.0" xmlns="http://www.w3.org/2000/svg"
 width="500.000000pt" height="500.000000pt" viewBox="0 0 500.000000 500.000000"
 preserveAspectRatio="xMidYMid meet">
<metadata>
Created by potrace 1.14, written by Peter Selinger 2001-2017
</metadata>
<g transform="translate(0.000000,500.000000) scale(0.100000,-0.100000)"
fill="#000000" stroke="none">
<path d="M196 4276 c-3 -12 -8 -41 -12 -62 -3 -21 -7 -41 -9 -44 -17 -28 -25
-376 -12 -490 39 -331 177 -585 440 -812 37 -32 65 -58 62 -58 -3 0 -74 35
-158 78 -157 81 -272 151 -414 253 -44 33 -84 59 -87 59 -3 0 -4 -62 -1 -137
3 -108 9 -161 30 -243 78 -302 262 -580 512 -774 61 -47 89 -65 170 -107 24
-13 42 -24 40 -25 -13 -14 -382 108 -459 152 -17 9 -28 11 -28 5 0 -31 152
-283 215 -356 158 -184 302 -300 500 -406 44 -23 89 -54 100 -68 34 -43 187
-195 245 -242 122 -101 339 -225 486 -279 l61 -22 49 25 c102 52 274 102 414
122 54 8 259 8 320 0 140 -17 358 -83 437 -133 26 -16 59 -8 161 39 34 16 64
29 67 29 15 0 182 101 267 161 90 64 242 205 315 291 17 20 55 49 85 64 293
148 532 381 690 674 43 79 58 120 37 104 -17 -12 -119 -55 -204 -85 -75 -26
-268 -80 -272 -75 -2 2 20 15 49 30 220 114 441 345 565 591 94 187 133 335
138 528 2 75 1 137 -2 137 -3 0 -35 -22 -72 -49 -124 -91 -276 -185 -429 -264
-85 -43 -156 -77 -158 -74 -3 2 8 12 23 22 15 11 67 56 114 102 208 202 329
443 365 728 10 82 10 312 0 410 -8 82 -33 215 -41 224 -3 2 -71 -63 -153 -146
-253 -258 -470 -428 -777 -612 -101 -61 -353 -183 -475 -231 -58 -22 -116 -46
-129 -53 -34 -17 -61 -65 -61 -108 0 -31 10 -46 83 -120 46 -46 101 -109 124
-139 194 -262 265 -626 184 -942 -80 -312 -276 -565 -558 -720 -51 -28 -61
-30 -123 -24 -84 7 -229 31 -336 54 -45 10 -91 15 -102 11 -10 -4 -32 -10 -48
-12 -16 -3 -83 -15 -149 -27 -198 -34 -244 -36 -296 -10 -100 51 -187 117
-291 224 -321 330 -404 845 -203 1262 59 123 122 211 227 319 78 79 88 94 88
126 0 69 -31 96 -175 154 -159 64 -353 156 -458 219 -43 25 -83 46 -88 46 -5
0 -9 4 -9 9 0 5 -8 11 -17 15 -20 6 -22 7 -157 100 -96 66 -254 189 -341 266
-22 19 -108 103 -191 187 -82 84 -153 153 -156 153 -3 0 -8 -11 -12 -24z"/>
<path d="M2440 2379 c-248 -39 -408 -276 -350 -519 13 -56 47 -128 78 -165 44
-54 134 -115 199 -135 161 -50 322 -11 434 105 85 87 118 179 123 345 4 126
19 179 67 242 16 20 29 39 29 42 0 2 -60 4 -133 3 -121 -1 -136 1 -163 20 -68
49 -193 76 -284 62z"/>
</g>
</svg>
