<svg id="Layer_1" data-name="Layer 1" xmlns="http://www.w3.org/2000/svg" xmlns:xlink="http://www.w3.org/1999/xlink" viewBox="0 0 595.08 143.21"><defs><style>.cls-1{fill:none;}.cls-2{fill:url(#radial-gradient);}.cls-3{fill:url(#radial-gradient-2);}.cls-4{fill:#fff;}.cls-5{fill:#ca0538;}</style><radialGradient id="radial-gradient" cx="192.95" cy="461.49" r="53.57" gradientTransform="translate(-177.41 -522.8) scale(1.29)" gradientUnits="userSpaceOnUse"><stop offset="0" stop-color="#fff"/><stop offset="0.49" stop-color="#fff"/><stop offset="0.65" stop-color="#fdfefe"/><stop offset="0.72" stop-color="#f6f9fc"/><stop offset="0.77" stop-color="#e9f0f7"/><stop offset="0.81" stop-color="#d7e4f1"/><stop offset="0.85" stop-color="#c0d5e8"/><stop offset="0.89" stop-color="#a3c2de"/><stop offset="0.92" stop-color="#80abd1"/><stop offset="0.95" stop-color="#5990c3"/><stop offset="0.98" stop-color="#2d73b3"/><stop offset="1" stop-color="#0055a3"/></radialGradient><radialGradient id="radial-gradient-2" cx="113.25" cy="259.45" r="56.5" gradientTransform="translate(-102.57 -273.47) scale(1.3)" gradientUnits="userSpaceOnUse"><stop offset="0" stop-color="#ebeff9"/><stop offset="0.1" stop-color="#b8d0ea"/><stop offset="0.3" stop-color="#5393cb"/><stop offset="0.39" stop-color="#2b7abf"/><stop offset="0.49" stop-color="#206eb6"/><stop offset="0.67" stop-color="#044e9e"/><stop offset="0.7" stop-color="#004a9b"/><stop offset="1" stop-color="#183b7c"/></radialGradient></defs><path class="cls-1" d="M71.61,140.32a68.71,68.71,0,1,1,68.7-68.71A68.8,68.8,0,0,1,71.61,140.32Z"/><path class="cls-2" d="M140.67,71.61A69.07,69.07,0,1,1,71.61,2.54,69.07,69.07,0,0,1,140.67,71.61Z"/><path class="cls-3" d="M98.28,96.91A34.77,34.77,0,0,1,74.45,79.45c-.49-.92-2.16-5.26-2.71-7s-1.36-4.13-1.64-4.82C65.47,56.25,54.67,49.05,44.93,47.31,15.78,42.09,4,69.29,2.73,73c1.1,37.7,31.85,67.69,68.84,67.69a69.11,69.11,0,0,0,68.91-69.47,1,1,0,0,1-.08.14C138.78,75.87,126.93,102,98.28,96.91Z"/><path class="cls-4" d="M1.87,72.14l.23,3.41.91-3C5.88,64.27,19.93,42,45.82,47.74c10.66,2.38,18.33,8.43,23.39,18.48.29.57.51,1,.83,1.73.65,1.44,1.1,2.85,1.31,3.42,2.09,5.67,2.89,8.95,6.16,11.7l-.88-2.9C75,78.64,74,75.55,71.88,69.24l-.13-.38-.61-1.41C65.93,56,57.73,49.17,46.08,46.57,19.34,40.61,4.84,63.61,1.87,72.14Z"/><path class="cls-4" d="M71.6,0a71.61,71.61,0,1,0,71.61,71.61A71.68,71.68,0,0,0,71.6,0Zm0,140.37a68.77,68.77,0,1,1,68.77-68.76A68.85,68.85,0,0,1,71.6,140.37Z"/><path class="cls-5" d="M239.59,25.85l-3.35.57H163L152.51,42.85l3.8-1.79a19.77,19.77,0,0,1,4-1.33c1-.19,11.35-.27,26.33-.19v69.65a4.43,4.43,0,0,1-.69,1.93,15.57,15.57,0,0,1-2.27,2.64l-2.23,2.1h30.16L207,110.45a3.84,3.84,0,0,1-.3-1.5V40.24l18.72-.07,3.05-.68c4.91-1.56,10.65-9.38,12.3-11.74l1.66-2.38Z"/><path class="cls-5" d="M341,24.59c-12.84.75-22.19,6.49-25,15.35a25.59,25.59,0,0,0-1.26,7.77,21.84,21.84,0,0,0,4.64,13.53c3.07,4,12.63,11.83,20.31,18.14,4,3.29,7.94,6.52,9.2,7.81A11.58,11.58,0,0,1,352.32,95s-.09,1.22-.09,1.22c-.75,5.3-2.84,8.12-7,9.31-4.93,1.43-12.46-.06-15.78-1.63-4.31-2.05-8.05-6.57-9.09-7.91l-4.69-7-2.23-3.35v24.12l.42.37a36.64,36.64,0,0,0,12.32,6.55c8.38,2.72,21.16,2,26.27.32,6.07-2,13.61-4.44,18.66-13.88a25.69,25.69,0,0,0,.55-22,29.87,29.87,0,0,0-5.78-7.39c-1.18-1.13-6.63-5.44-13.63-10.95-6.48-5.1-13.81-10.88-14.46-11.62l.25.49L337,50.23a7.62,7.62,0,0,1-2.38-4.82l-.12-1.36a10.09,10.09,0,0,1,1.28-4.7c1-1.85,4.32-3.73,9.32-3.48A26.37,26.37,0,0,1,356,38.55c3.69,2,8.34,6.93,8.86,7.5l2.11,2.26V28.16l-.86-.27C365.93,27.85,353.05,23.88,341,24.59Z"/><path class="cls-5" d="M254.28,25.52h-2.92L254,28.2a5.29,5.29,0,0,1,1.67,2.12l.11.89a11,11,0,0,1-.54,3c-10.16,27.1-27.63,73.49-28.74,75.49a14.17,14.17,0,0,1-4.18,4.2l-3.48,2.23h25.37L241,113.94a1.93,1.93,0,0,1-.85-1.44s.44-2.28.44-2.28,7.55-19.64,8.61-22.4H278c.54,1.51,8,22.79,8,22.79a7.19,7.19,0,0,1,.47,2.18,1.44,1.44,0,0,1-.72,1.13l-3.41,2.23h33l-3.54-2.24a11.13,11.13,0,0,1-2.6-2.31,21.44,21.44,0,0,1-2.67-4.61s-28.07-80.67-28.07-80.67l-.28-.81H254.28Zm9.84,23.4c1.72,4.8,9.08,25.43,10,28.07H253.36Z"/><path class="cls-5" d="M471.57,25.52h-2.93l2.67,2.68A5.27,5.27,0,0,1,473,30.32s.11.9.11.9a10.7,10.7,0,0,1-.54,3C459.88,68,444.82,107.89,443.8,109.73a14.19,14.19,0,0,1-4.17,4.2l-3.47,2.23h25.33l-3.2-2.22a1.9,1.9,0,0,1-.84-1.44s.44-2.28.44-2.28,7.54-19.64,8.6-22.4H495.3l8,22.79a7.49,7.49,0,0,1,.46,2.18,1.54,1.54,0,0,1-.73,1.15l-3.12,2.21h32.71l-3.53-2.24a11.13,11.13,0,0,1-2.6-2.31,21.41,21.41,0,0,1-2.68-4.61s-28.07-80.67-28.07-80.67l-.28-.81H471.57Zm9.83,23.4c1.72,4.8,9.09,25.43,10,28.07H470.64Z"/><path class="cls-5" d="M571.06,27.63l1.51,1.6c0,.14.14.42.25.72-.13.41-.31,1-.36,1.17s-15,25.54-15.86,27L539.17,30.54a11.67,11.67,0,0,0-6.5-4.78l-.16,0h-25L512.17,29l3.34,2.46c2.22,2.18,4.41,4.88,4.41,4.88.42.43,2.9,4.34,9.54,14.79,0,0,11.65,18.35,13.24,20.84,0,.69.31,35,.31,35l0,2.84c-.09,1.57-1.75,3.24-2.71,4l-2.89,2.19h32.48l-4.06-2.45a6.24,6.24,0,0,1-2-1.58,4.06,4.06,0,0,1-.62-1.92v-39l.41-.7C576.16,48.47,584,35,585,33.34A18,18,0,0,1,591,28l4.11-2.45h-26Z"/><path class="cls-5" d="M407.4,24.59c-12.85.75-22.19,6.49-25,15.35a25.88,25.88,0,0,0-1.25,7.77,21.9,21.9,0,0,0,4.63,13.53c3.13,4,12.78,11.95,20.54,18.33,4.19,3.45,7.76,6.38,9,7.62A11.56,11.56,0,0,1,418.75,95l-.09,1.21c-.75,5.32-2.85,8.13-7,9.32-4.93,1.43-12.47-.06-15.79-1.63-4.3-2.05-8-6.57-9.1-7.91l-6.89-10.33,0,4v20.09l.42.37a36.62,36.62,0,0,0,12.32,6.55c8.38,2.72,21.16,2,26.27.32,6.06-2,13.6-4.43,18.66-13.88,4.66-8.72,2.38-18.63.55-22a29.51,29.51,0,0,0-5.78-7.39c-1.25-1.18-7.21-5.9-13.54-10.88-5.9-4.65-13.87-10.93-14.54-11.69v.06a11.26,11.26,0,0,0-.81-1,7.72,7.72,0,0,1-2.38-4.82,7.72,7.72,0,0,1-.11-1.36,10.16,10.16,0,0,1,1.28-4.71c1-1.85,4.3-3.72,9.31-3.47a26.33,26.33,0,0,1,10.85,2.68c3.58,1.93,8,6.58,8.85,7.5l2.11,2.26V28.15l-.86-.27C430.27,27.22,418.68,23.93,407.4,24.59Z"/></svg>