<svg width="278" height="92" viewBox="0 0 278 92" fill="none" xmlns="http://www.w3.org/2000/svg">
<ellipse cx="38.6697" cy="37.7162" rx="38.6697" ry="37.7162" fill="#FFAE1F"/>
<path d="M106.494 15.8301C112.713 15.8301 118.324 18.3888 122.345 22.5294C126.366 18.3888 131.977 15.8301 138.196 15.8301C150.399 15.8301 160.265 25.6464 160.265 37.7889V59.8408C160.265 63.2369 157.46 66.0283 154.046 66.0283C150.633 66.0283 147.828 63.2369 147.828 59.8408V57.5611V37.7889C147.828 32.4853 143.526 28.2052 138.196 28.2052C132.865 28.2052 128.564 32.4853 128.564 37.7889V57.5611V59.8408C128.564 63.2369 125.758 66.0283 122.345 66.0283C118.932 66.0283 116.126 63.2369 116.126 59.8408V57.5611V37.7889C116.126 32.4853 111.825 28.2052 106.494 28.2052C101.164 28.2052 96.8623 32.4853 96.8623 37.7889V57.5611V59.8408C96.8623 63.2369 94.0569 66.0283 90.6436 66.0283C87.2303 66.0283 84.4249 63.2369 84.4249 59.8408V37.7889V22.0176C84.4249 18.6215 87.2303 15.8301 90.6436 15.8301C92.7945 15.8301 94.6647 16.9001 95.7869 18.5749C98.9664 16.8536 102.613 15.8301 106.494 15.8301Z" fill="#F2F2F2"/>
<path d="M211.885 15.8301C209.313 15.8301 207.116 17.3653 206.18 19.5984C202.3 17.2258 197.764 15.8301 192.901 15.8301C178.968 15.8301 167.699 27.0421 167.699 40.9059C167.699 54.7698 178.968 65.9818 192.901 65.9818C197.764 65.9818 202.346 64.5861 206.18 62.2134C207.116 64.4 209.36 65.9818 211.885 65.9818C215.298 65.9818 218.103 63.1904 218.103 59.7942V40.9059V22.0176C218.103 18.6215 215.298 15.8301 211.885 15.8301ZM192.901 53.6532C185.841 53.6532 180.137 47.9774 180.137 40.9525C180.137 33.9275 185.841 28.2517 192.901 28.2517C199.962 28.2517 205.666 33.9275 205.666 40.9525C205.666 47.9309 199.962 53.6532 192.901 53.6532Z" fill="#F2F2F2"/>
<path d="M271.687 15.8301C269.162 15.8301 266.965 17.3653 265.936 19.5054C256.21 13.597 243.352 14.8066 234.936 23.1807C225.07 32.997 225.07 48.8614 234.936 58.6777C243.165 66.8657 255.696 68.2149 265.375 62.6787V66.0283C265.375 72.9137 259.671 78.5895 252.75 78.5895C249.15 78.5895 245.69 77.0542 243.305 74.3094C243.212 74.2164 243.165 74.1233 243.072 74.0768C240.594 71.6111 236.619 71.6111 234.141 74.0768C231.803 76.4029 231.663 80.1248 233.814 82.5905C238.583 88.0337 245.503 91.1507 252.797 91.1507C266.637 91.1507 277.999 79.8456 277.999 66.0748C277.999 66.0748 277.999 63.423 277.999 59.7942V40.9059V22.1107C277.999 18.668 275.147 15.8301 271.687 15.8301ZM261.681 49.7918C256.772 54.6767 248.776 54.6767 243.867 49.7918C238.957 44.9069 238.957 36.9515 243.867 32.0666C248.776 27.1817 256.772 27.1817 261.681 32.0666C264.112 34.4858 265.375 37.6959 265.375 40.8594V40.999C265.375 44.1625 264.112 47.3726 261.681 49.7918Z" fill="#F2F2F2"/>
<path d="M60.4159 22.1093C60.4159 18.6666 57.5638 15.8287 54.1037 15.8287C50.6437 15.8287 47.7915 18.6666 47.7915 22.1093V44.2543C47.6045 49.2787 43.4898 53.2797 38.3466 53.2797C33.2033 53.2797 29.0886 49.2787 28.9016 44.2077V22.0628C28.9016 18.6201 26.0494 15.7822 22.5894 15.7822C19.1293 15.7822 16.2772 18.6201 16.2772 22.0628V43.8821V43.9286V43.9751C16.2772 56.1176 26.1429 65.934 38.3466 65.934C50.0359 65.934 59.5743 56.9085 60.3692 45.4639C60.4159 45.1847 60.4159 44.9521 60.4159 44.673V22.1093Z" fill="white"/>
</svg>
