<svg width="183" height="59" viewBox="0 0 183 59" fill="none" xmlns="http://www.w3.org/2000/svg">
<path d="M24.4118 48.5866C37.8939 48.5866 48.8232 37.9267 48.8232 24.7772C48.8232 11.6276 37.8939 0.96772 24.4118 0.96772C10.9298 0.96772 0.000488281 11.6276 0.000488281 24.7772C0.000488281 37.9267 10.9298 48.5866 24.4118 48.5866Z" fill="#FFAE1F"/>
<path d="M74.3702 10.9616C78.2962 10.9616 81.8383 12.5769 84.3766 15.1908C86.915 12.5769 90.4571 10.9616 94.383 10.9616C102.087 10.9616 108.315 17.1585 108.315 24.8238V38.7446C108.315 40.8885 106.544 42.6507 104.389 42.6507C102.234 42.6507 100.464 40.8885 100.464 38.7446V37.3055V24.8238C100.464 21.4757 97.7477 18.7738 94.383 18.7738C91.0177 18.7738 88.3026 21.4757 88.3026 24.8238V37.3055V38.7446C88.3026 40.8885 86.5312 42.6507 84.3766 42.6507C82.2221 42.6507 80.4507 40.8885 80.4507 38.7446V37.3055V24.8238C80.4507 21.4757 77.7356 18.7738 74.3702 18.7738C71.0055 18.7738 68.2899 21.4757 68.2899 24.8238V37.3055V38.7446C68.2899 40.8885 66.519 42.6507 64.3642 42.6507C62.2095 42.6507 60.4385 40.8885 60.4385 38.7446V24.8238V14.8677C60.4385 12.7238 62.2095 10.9616 64.3642 10.9616C65.722 10.9616 66.9026 11.6371 67.6111 12.6944C69.6182 11.6077 71.9202 10.9616 74.3702 10.9616Z" fill="white"/>
<path d="M140.901 10.9616C139.278 10.9616 137.891 11.9307 137.3 13.3404C134.851 11.8426 131.987 10.9616 128.917 10.9616C120.122 10.9616 113.008 18.0395 113.008 26.7914C113.008 35.5434 120.122 42.6213 128.917 42.6213C131.987 42.6213 134.88 41.7402 137.3 40.2423C137.891 41.6227 139.308 42.6213 140.901 42.6213C143.056 42.6213 144.827 40.8591 144.827 38.7152V26.7914V14.8676C144.827 12.7237 143.056 10.9616 140.901 10.9616ZM128.917 34.8385C124.46 34.8385 120.86 31.2555 120.86 26.8208C120.86 22.3861 124.46 18.803 128.917 18.803C133.375 18.803 136.976 22.3861 136.976 26.8208C136.976 31.2261 133.375 34.8385 128.917 34.8385Z" fill="white"/>
<path d="M178.654 10.9616C177.06 10.9616 175.673 11.9307 175.023 13.2817C168.883 9.55185 160.766 10.3154 155.453 15.6018C149.225 21.7987 149.225 31.8135 155.453 38.0103C160.648 43.1792 168.559 44.031 174.669 40.5361V42.6506C174.669 46.9972 171.068 50.5802 166.699 50.5802C164.426 50.5802 162.242 49.611 160.737 47.8783C160.678 47.8196 160.648 47.7608 160.589 47.7315C159.025 46.1749 156.516 46.1749 154.952 47.7315C153.476 49.1999 153.387 51.5494 154.745 53.106C157.756 56.5422 162.124 58.5099 166.729 58.5099C175.466 58.5099 182.638 51.3732 182.638 42.68C182.638 42.68 182.638 41.0059 182.638 38.7152V26.7914V14.9264C182.638 12.7531 180.838 10.9616 178.654 10.9616ZM172.337 32.4009C169.238 35.4846 164.19 35.4846 161.091 32.4009C157.992 29.3171 157.992 24.295 161.091 21.2113C164.19 18.1276 169.238 18.1276 172.337 21.2113C173.872 22.7385 174.669 24.765 174.669 26.762V26.8501C174.669 28.8472 173.872 30.8737 172.337 32.4009Z" fill="white"/>
<path d="M38.1397 14.9262C38.1397 12.7529 36.3392 10.9614 34.1549 10.9614C31.9707 10.9614 30.1702 12.7529 30.1702 14.9262V28.9058C30.0521 32.0776 27.4546 34.6034 24.2078 34.6034C20.961 34.6034 18.3634 32.0776 18.2454 28.8764V14.8968C18.2454 12.7235 16.4449 10.932 14.2606 10.932C12.0763 10.932 10.2759 12.7235 10.2759 14.8968V28.6709V28.7002V28.7296C10.2759 36.3949 16.5039 42.5918 24.2078 42.5918C31.587 42.5918 37.6084 36.8942 38.1102 29.6694C38.1397 29.4932 38.1397 29.3464 38.1397 29.1702V14.9262Z" fill="white"/>
</svg>
