<svg width="433" height="140" viewBox="0 0 433 140" fill="none" xmlns="http://www.w3.org/2000/svg">
<path d="M148.75 88.6659L181.981 50.7527H147.875V38.4999L199.235 38.4999V50.2395L166.005 88.1527H199.235V100.406H148.75V88.6659Z" fill="#222222"/>
<path d="M270.3 38.2133V100.696H257.711L257.583 92.3567C252.79 98.451 244.483 102.108 234.897 102.108C216.62 102.108 204.03 88.7001 204.03 69.4548C204.03 50.2095 216.62 36.802 234.897 36.802C244.61 36.802 252.79 40.4586 257.583 46.5529L257.711 38.2133H270.3ZM256.177 69.3907C256.177 57.7794 248.381 49.6963 237.133 49.6963C225.95 49.6963 218.09 57.7794 218.09 69.3907C218.09 81.002 225.886 89.085 237.133 89.085C248.381 89.1492 256.177 81.0662 256.177 69.3907Z" fill="#222222"/>
<path d="M348.02 69.3907C348.02 88.636 335.431 102.044 317.154 102.044C308.463 102.044 300.794 99.0284 295.873 93.8322V129.5H281.75V38.2133H294.339L294.467 46.5529C299.26 40.4586 307.568 36.802 317.154 36.802C335.431 36.802 348.02 50.2096 348.02 69.3907ZM333.897 69.3907C333.897 57.7794 326.101 49.6963 314.853 49.6963C303.797 49.6963 295.809 57.7794 295.809 69.3907C295.809 81.002 303.734 89.085 314.853 89.085C326.101 89.1492 333.897 81.0662 333.897 69.3907Z" fill="#222222"/>
<path d="M356.773 101.507V38.3184H370.385V101.507H356.773Z" fill="#222222"/>
<path d="M406.687 103.56C402.917 103.56 399.53 103.047 396.463 102.02C393.459 100.994 390.775 99.7107 388.538 98.0428C386.302 96.3749 384.384 94.5145 382.787 92.3975C381.253 90.2805 380.039 88.0994 379.208 85.8541L391.797 80.5296C393.203 84.1862 395.312 86.8164 397.996 88.5485C400.68 90.2805 403.556 91.1145 406.687 91.1145C410.202 91.1145 413.014 90.4089 414.995 88.9334C417.04 87.5221 417.999 85.9183 417.999 84.1221C417.999 82.3258 417.232 80.7862 415.762 79.5032C414.228 78.2202 411.416 77.0655 407.199 76.039L398.38 73.8579C396.463 73.4088 394.481 72.7673 392.5 71.8692C390.519 70.9711 388.73 69.8164 387.005 68.4692C385.343 67.0579 383.937 65.39 382.915 63.4013C381.892 61.4126 381.317 59.1032 381.317 56.4088C381.317 53.3938 381.956 50.6994 383.298 48.3258C384.576 45.9522 386.365 43.9636 388.666 42.3598C390.903 40.756 393.587 39.5371 396.526 38.7032C399.53 37.8692 402.661 37.4202 406.048 37.4202C408.796 37.4202 411.48 37.7409 414.037 38.3183C416.593 38.8956 418.957 39.7938 421.13 40.9485C423.303 42.1032 425.284 43.6428 427.009 45.439C428.735 47.2353 430.077 49.3522 431.099 51.8541L418.766 57.0504C417.615 54.356 415.762 52.3673 413.206 51.1485C410.714 49.9296 408.093 49.2881 405.537 49.2881C404.387 49.2881 403.173 49.4164 401.958 49.7371C400.744 50.0579 399.658 50.4428 398.699 51.0202C397.741 51.5975 396.91 52.239 396.335 53.1371C395.696 53.9711 395.376 54.9334 395.376 55.8956C395.376 57.5636 396.079 58.9107 397.549 59.873C399.019 60.8353 401.255 61.7334 404.259 62.439L413.717 64.8126C420.108 66.4164 424.773 68.8541 427.776 72.0617C430.78 75.3334 432.25 79.1183 432.25 83.4805C432.25 86.1749 431.611 88.6768 430.396 91.0504C429.182 93.4239 427.457 95.5409 425.156 97.4013C422.92 99.2617 420.172 100.737 417.04 101.764C413.973 103.047 410.458 103.56 406.687 103.56Z" fill="#222222"/>
<path fill-rule="evenodd" clip-rule="evenodd" d="M115.497 57.8139C115.431 70.3837 111.207 81.9715 104.211 91.3988C96.4563 100.938 86.5655 111.112 77.5709 120.365C70.9897 127.135 64.8882 133.411 60.4543 138.584C58.7384 140.483 55.7025 140.483 54.0525 138.519C49.9549 133.626 44.369 127.817 38.3135 121.52C29.0563 111.894 18.7017 101.126 10.8897 90.7441L10.8237 90.6786C4.02589 81.2513 0 69.729 0 57.2902C0 25.4074 26.3333 -0.452275 58.6064 0.00599837C90.2195 0.464272 115.827 26.4549 115.497 57.8139ZM81.3934 52.6956C82.6644 53.4513 82.7043 55.2773 81.4675 56.0877L62.5033 68.5134C61.6687 69.0603 61.3648 70.1388 61.7913 71.041L70.7248 89.9398C71.5681 91.7238 69.5921 93.5217 67.8954 92.5141L34.1699 72.4855C32.8982 71.7303 32.8578 69.9036 34.095 69.093L53.0562 56.6692C53.8916 56.1219 54.1951 55.0421 53.7673 54.1397L44.7845 35.1893C43.9385 33.4048 45.9162 31.6043 47.6137 32.6135L81.3934 52.6956Z" fill="#FF6972"/>
</svg>
