<svg width="180" height="59" viewBox="0 0 180 59" fill="none" xmlns="http://www.w3.org/2000/svg">
<g clip-path="url(#clip0_156_68)">
<path d="M38.0382 11.0874H10.1616V39.6828H38.0382V11.0874Z" fill="white"/>
<path d="M60.5282 36.7813L74.2472 21.0534H60.167V15.9705H81.3703V20.8405L67.6517 36.5684H81.3703V41.6516H60.5282V36.7813Z" fill="white"/>
<path d="M110.709 15.852V41.7723H105.512L105.459 38.3128C103.48 40.841 100.051 42.3581 96.0931 42.3581C88.5477 42.3581 83.3501 36.7959 83.3501 28.8122C83.3501 20.8285 88.5477 15.2665 96.0931 15.2665C100.103 15.2665 103.48 16.7834 105.459 19.3116L105.512 15.852H110.709ZM104.878 28.7856C104.878 23.9688 101.66 20.6156 97.0162 20.6156C92.3995 20.6156 89.1546 23.9688 89.1546 28.7856C89.1546 33.6024 92.3731 36.9556 97.0162 36.9556C101.66 36.9822 104.878 33.6291 104.878 28.7856Z" fill="white"/>
<path d="M142.795 28.7856C142.795 36.7693 137.598 42.3315 130.052 42.3315C126.464 42.3315 123.298 41.0805 121.267 38.9249V53.7214H115.436V15.852H120.633L120.686 19.3116C122.665 16.7834 126.095 15.2665 130.052 15.2665C137.598 15.2665 142.795 20.8285 142.795 28.7856ZM136.964 28.7856C136.964 23.9688 133.746 20.6156 129.102 20.6156C124.538 20.6156 121.24 23.9688 121.24 28.7856C121.24 33.6024 124.512 36.9556 129.102 36.9556C133.746 36.9822 136.964 33.6291 136.964 28.7856Z" fill="white"/>
<path d="M146.409 42.1084V15.8953H152.028V42.1084H146.409Z" fill="white"/>
<path d="M167.014 42.9604C165.458 42.9604 164.06 42.7476 162.793 42.3215C161.553 41.8959 160.445 41.3635 159.522 40.6716C158.599 39.9797 157.807 39.2079 157.147 38.3297C156.514 37.4515 156.013 36.5467 155.67 35.6153L160.867 33.4064C161.448 34.9233 162.318 36.0145 163.426 36.733C164.534 37.4515 165.722 37.7975 167.014 37.7975C168.465 37.7975 169.626 37.5048 170.444 36.8927C171.288 36.3072 171.684 35.6419 171.684 34.8968C171.684 34.1516 171.368 33.5129 170.761 32.9806C170.127 32.4484 168.967 31.9694 167.226 31.5436L163.585 30.6388C162.793 30.4524 161.975 30.1863 161.157 29.8138C160.34 29.4412 159.601 28.9622 158.889 28.4033C158.203 27.8178 157.622 27.1259 157.2 26.3009C156.778 25.4759 156.541 24.5179 156.541 23.4002C156.541 22.1494 156.804 21.0317 157.358 20.047C157.886 19.0623 158.625 18.2374 159.575 17.5721C160.498 16.9067 161.606 16.4011 162.819 16.0552C164.06 15.7092 165.352 15.5229 166.75 15.5229C167.885 15.5229 168.993 15.656 170.049 15.8955C171.104 16.135 172.08 16.5076 172.977 16.9866C173.874 17.4656 174.692 18.1043 175.404 18.8494C176.117 19.5946 176.671 20.4728 177.092 21.5107L172.001 23.6663C171.526 22.5486 170.761 21.7236 169.706 21.218C168.677 20.7123 167.595 20.4462 166.54 20.4462C166.065 20.4462 165.564 20.4994 165.062 20.6325C164.561 20.7656 164.112 20.9252 163.717 21.1648C163.321 21.4042 162.978 21.6704 162.741 22.0429C162.477 22.3889 162.345 22.7881 162.345 23.1873C162.345 23.8792 162.635 24.4381 163.242 24.8373C163.849 25.2365 164.772 25.609 166.012 25.9017L169.917 26.8864C172.555 27.5517 174.481 28.563 175.721 29.8936C176.961 31.2508 177.568 32.821 177.568 34.6306C177.568 35.7483 177.304 36.7862 176.802 37.7709C176.301 38.7555 175.589 39.6337 174.639 40.4055C173.716 41.1773 172.581 41.7893 171.288 42.2153C170.022 42.7476 168.571 42.9604 167.014 42.9604Z" fill="white"/>
<path fill-rule="evenodd" clip-rule="evenodd" d="M48.5506 23.9836C48.5233 29.1981 46.7795 34.0051 43.8913 37.916C40.6899 41.8732 36.6066 46.0938 32.8933 49.9323C30.1763 52.7408 27.6574 55.3443 25.8269 57.4903C25.1185 58.2781 23.8652 58.2781 23.184 57.4633C21.4924 55.4335 19.1863 53.0237 16.6864 50.4115C12.8647 46.4182 8.5899 41.9512 5.36481 37.6444L5.33757 37.6172C2.53118 33.7064 0.869141 28.9265 0.869141 23.7663C0.869141 10.5401 11.7405 -0.187561 25.064 0.00254941C38.1151 0.19266 48.6868 10.9746 48.5506 23.9836ZM34.4714 21.8603C34.9961 22.1738 35.0125 22.9313 34.5019 23.2675L26.6728 28.4222C26.3283 28.6491 26.2028 29.0965 26.3789 29.4707L30.067 37.3107C30.4151 38.0508 29.5993 38.7966 28.8989 38.3786L14.9757 30.07C14.4507 29.7567 14.4341 28.9989 14.9448 28.6626L22.7727 23.5087C23.1176 23.2817 23.2429 22.8337 23.0663 22.4594L19.3578 14.598C19.0086 13.8577 19.825 13.1108 20.5258 13.5295L34.4714 21.8603Z" fill="#FD1B14"/>
</g>
<defs>
<clipPath id="clip0_156_68">
<rect width="178.758" height="58.0776" fill="white" transform="translate(0.869141)"/>
</clipPath>
</defs>
</svg>
