<svg width="120" height="120" viewBox="0 0 120 120" fill="none" xmlns="http://www.w3.org/2000/svg">
<path d="M68.5095 3.52474C63.8098 -1.17491 56.1902 -1.17491 51.4905 3.52474L3.52474 51.4905C-1.17491 56.1902 -1.17491 63.8098 3.52474 68.5095L51.4905 116.475C56.1902 121.175 63.8098 121.175 68.5095 116.475L92.4924 92.4924H76.2462L64.2547 104.484C61.9049 106.834 58.0951 106.834 55.7453 104.484L15.5162 64.2547C13.1664 61.9049 13.1664 58.0951 15.5162 55.7453L55.7453 15.5162C58.0951 13.1664 61.9049 13.1664 64.2547 15.5162L76.2462 27.5076H92.4924L68.5095 3.52474ZM82.7447 34.0061L104.484 55.7453C106.834 58.0951 106.834 61.9049 104.484 64.2547L82.7447 85.9939H98.9908L116.475 68.5095C121.175 63.8098 121.175 56.1902 116.475 51.4905L98.9908 34.0061H82.7447Z" fill="#FAFAFA"/>
<path d="M31.9783 62.6602V60.4027C31.5095 60.4413 31.0022 60.496 30.4564 60.5667C29.9106 60.631 29.4965 60.7082 29.2139 60.7982C28.8672 60.9075 28.6007 61.0683 28.4145 61.2806C28.2347 61.4864 28.1448 61.7598 28.1448 62.1007C28.1448 62.3258 28.1641 62.5091 28.2027 62.6506C28.2412 62.7921 28.3376 62.9271 28.4916 63.0558C28.6393 63.1844 28.8159 63.2809 29.0214 63.3452C29.2269 63.403 29.5479 63.432 29.9846 63.432C30.3313 63.432 30.6813 63.3612 31.0345 63.2197C31.394 63.0782 31.7087 62.8917 31.9784 62.6602L31.9783 62.6602ZM31.9783 64.3389C31.7921 64.4804 31.5609 64.6509 31.2848 64.8502C31.0087 65.0496 30.7486 65.2072 30.5046 65.323C30.1643 65.4773 29.8111 65.5899 29.4451 65.6606C29.0791 65.7378 28.6777 65.7764 28.2411 65.7764C27.2137 65.7764 26.3533 65.458 25.6598 64.8213C24.9663 64.1845 24.6195 63.3709 24.6195 62.3804C24.6195 61.5893 24.7961 60.9429 25.1493 60.4413C25.5024 59.9396 26.0033 59.544 26.6518 59.2546C27.294 58.9652 28.0902 58.7594 29.0405 58.6371C29.9909 58.515 30.9766 58.4249 31.9975 58.367V58.3091C31.9975 57.7109 31.7535 57.2993 31.2655 57.0742C30.7775 56.8426 30.0583 56.7269 29.108 56.7269C28.5365 56.7269 27.9265 56.8298 27.2779 57.0356C26.6294 57.235 26.1638 57.3893 25.8813 57.4987H25.5634V54.8842C25.9295 54.7877 26.5234 54.6751 27.3453 54.5465C28.1737 54.4114 29.002 54.3439 29.8304 54.3439C31.8017 54.3439 33.224 54.6494 34.0973 55.2604C34.977 55.865 35.4169 56.8169 35.4169 58.1161V65.4869H31.9783V64.3389Z" fill="#FAFAFA"/>
<path d="M43.6569 65.7764C42.7075 65.7764 41.8389 65.6638 41.0509 65.4385C40.2695 65.2132 39.5881 64.8655 39.0069 64.3956C38.4321 63.9257 37.9865 63.3335 37.67 62.619C37.3535 61.9044 37.1953 61.0676 37.1953 60.1084C37.1953 59.0978 37.3632 58.2256 37.6991 57.4917C38.0414 56.7579 38.516 56.1496 39.1231 55.6668C39.7108 55.2097 40.389 54.875 41.1575 54.6626C41.9261 54.4501 42.7237 54.3439 43.5503 54.3439C44.293 54.3439 44.9776 54.4244 45.6041 54.5853C46.2305 54.7462 46.815 54.9555 47.3575 55.2129V58.1773H46.8635C46.7278 58.0614 46.5632 57.9262 46.3694 57.7717C46.1821 57.6172 45.9496 57.466 45.6719 57.3179C45.4071 57.1763 45.1165 57.0604 44.8 56.9703C44.4836 56.8737 44.1154 56.8254 43.6956 56.8254C42.7656 56.8254 42.0488 57.1216 41.545 57.7138C41.0477 58.2996 40.7991 59.0978 40.7991 60.1084C40.7991 61.1513 41.0542 61.943 41.5644 62.4838C42.0811 63.0245 42.8109 63.2949 43.7538 63.2949C44.1929 63.2949 44.5869 63.2466 44.9357 63.15C45.2909 63.0471 45.5847 62.928 45.8172 62.7927C46.0368 62.664 46.2306 62.5288 46.3985 62.3872C46.5664 62.2456 46.7214 62.1072 46.8635 61.972H47.3575V64.9363C46.8086 65.1938 46.2338 65.3966 45.6332 65.5447C45.039 65.6991 44.3802 65.7764 43.6569 65.7764V65.7764Z" fill="#FAFAFA"/>
<path d="M59.5683 57.8117V65.5223H56.0869V60.0881C56.0869 59.5586 56.0742 59.1097 56.0486 58.7417C56.023 58.3671 55.9524 58.0636 55.837 57.8311C55.7216 57.5986 55.5453 57.4307 55.3081 57.3274C55.0773 57.2176 54.7503 57.1627 54.3271 57.1627C53.9873 57.1627 53.6571 57.2338 53.3366 57.3759C53.016 57.5115 52.7275 57.6568 52.471 57.8118V65.5224H49.0089V54.6442H52.471V55.8453C53.0673 55.3739 53.6379 55.0058 54.1829 54.7411C54.7278 54.4763 55.3305 54.3439 55.9909 54.3439C56.7025 54.3439 57.3308 54.5054 57.8758 54.8283C58.4208 55.1447 58.8471 55.6129 59.1549 56.2328C59.8473 55.6452 60.5205 55.1834 61.1744 54.8476C61.8284 54.5118 62.4695 54.3439 63.0979 54.3439C64.2647 54.3439 65.1495 54.6958 65.7522 55.3997C66.3612 56.1036 66.6658 57.1175 66.6658 58.4414V65.5224H63.1844V60.0881C63.1844 59.5521 63.1716 59.1001 63.146 58.732C63.1268 58.3639 63.0595 58.0636 62.9441 57.8311C62.8351 57.5986 62.662 57.4307 62.4248 57.3274C62.1875 57.2177 61.8542 57.1627 61.4246 57.1627C61.1361 57.1627 60.854 57.2144 60.5783 57.3177C60.3026 57.4145 59.966 57.5792 59.5685 57.8117L59.5683 57.8117Z" fill="#FAFAFA"/>
<path d="M76.0657 60.4412H68.6981V57.7737H76.0657V60.4412Z" fill="#FAFAFA"/>
<path d="M95.374 54.725L92.0286 65.5224H88.3563L86.1549 58.244L83.9919 65.5224H80.2715L76.955 54.725H80.5888L82.4345 62.1668L84.7417 54.725H87.8083L90.0002 62.1668L91.8171 54.725H95.374Z" fill="#FAFAFA"/>
</svg>
